{"asset":{"version":"2.0","premultipliedAlpha":true,"extras":{"_pipeline":{}}},"accessors":[{"bufferView":3,"byteOffset":0,"componentType":5123,"count":32028,"type":"SCALAR","min":[0],"max":[32027],"extras":{"_pipeline":{}},"name":"accessor_389"},{"bufferView":0,"byteOffset":0,"componentType":5126,"count":32028,"type":"VEC3","min":[0.26502904295921326,-37.52959442138672,-310.448974609375],"max":[623.87109375,483.7746887207031,293.52874755859375],"extras":{"_pipeline":{}},"name":"accessor_390"},{"bufferView":1,"byteOffset":0,"componentType":5125,"count":32028,"type":"SCALAR","min":[0],"max":[80],"extras":{"_pipeline":{}},"name":"accessor_391"},{"bufferView":2,"byteOffset":0,"componentType":5126,"count":32028,"type":"VEC3","min":[-0.9812444448471069,-0.870709240436554,-0.7448285222053528],"max":[0.9059537053108215,0.7902076244354248,0.8918687105178833],"extras":{"_pipeline":{}},"name":"accessor_392"}],"bufferViews":[{"buffer":0,"byteLength":384336,"byteOffset":0,"target":34962,"extras":{"_pipeline":{}},"name":"bufferView_0","byteStride":12},{"buffer":0,"byteLength":128112,"byteOffset":384336,"target":34962,"extras":{"_pipeline":{}},"name":"bufferView_0","byteStride":4},{"buffer":0,"byteLength":384336,"byteOffset":512448,"target":34962,"extras":{"_pipeline":{}},"name":"bufferView_0","byteStride":12},{"buffer":0,"byteLength":64056,"byteOffset":896784,"target":34963,"extras":{"_pipeline":{}},"name":"bufferView_1"},{"buffer":0,"byteOffset":960840,"byteLength":429},{"buffer":0,"byteOffset":961272,"byteLength":933}],"buffers":[{"byteLength":962208,"uri":"data:application/octet-stream;base64,"}],"extensionsUsed":["CESIUM_RTC","KHR_technique_webgl"],"meshes":[{"name":"rootNode_mesh","primitives":[{"attributes":{"POSITION":1,"_BATCHID":2,"NORMAL":3},"material":0,"mode":4,"indices":0,"extras":{"_pipeline":{}}}],"extras":{"_pipeline":{}}}],"nodes":[{"extras":{"_pipeline":{}},"name":"rootNode","mesh":0}],"scene":0,"scenes":[{"nodes":[0],"extras":{"_pipeline":{}},"name":"combinedScene"}],"materials":[{"pbrMetallicRoughness":{"baseColorFactor":[0.9764,0.8,0,1],"metallicFactor":0.25}}],"techniques":[],"programs":[],"shaders":[],"extensions":{"CESIUM_RTC":{"center":[-2703975.489041532,-4261000.301197815,3887310.485579339],"extras":{"_pipeline":{}}}},"extensionsRequired":["CESIUM_RTC","KHR_technique_webgl"],"images":[],"textures":[],"samplers":[]}